<svg width="1125" height="675" viewBox="0 0 1125 675" fill="none" xmlns="http://www.w3.org/2000/svg">
  <defs>
    <linearGradient id="bg" x1="0" y1="0" x2="1125" y2="675" gradientUnits="userSpaceOnUse">
      <stop stop-color="#122531"/>
      <stop offset="1" stop-color="#1B413E"/>
    </linearGradient>
  </defs>

  <rect width="1125" height="675" fill="url(#bg)"/>
  <rect x="38" y="38" width="1049" height="599" rx="20" stroke="#F9E1BA" stroke-opacity="0.45" stroke-width="2"/>
  <rect x="60" y="60" width="1005" height="555" fill="none" stroke="#F9E1BA" stroke-opacity="0.35" stroke-dasharray="8 8"/>

  <path d="M250 334C338 275 421 251 497 245C557 240 604 245 648 256C724 272 786 300 918 391" stroke="#F9E1BA" stroke-width="15" stroke-linecap="round"/>
  <path d="M216 444C312 365 408 327 500 319C590 311 663 333 733 358C797 380 866 415 935 461" stroke="#BF9863" stroke-width="11" stroke-linecap="round" opacity="0.85"/>
  <path d="M486 150C486 113.549 515.549 84 552 84C588.451 84 618 113.549 618 150C618 186.451 588.451 216 552 216H492" stroke="#FFFFFF" stroke-width="16" stroke-linecap="round" stroke-linejoin="round"/>
  <path d="M492 216H593" stroke="#FFFFFF" stroke-width="16" stroke-linecap="round"/>

  <text x="563" y="552" text-anchor="middle" fill="#FFFFFF" font-size="70" font-weight="700" letter-spacing="2" font-family="Georgia, 'Times New Roman', serif">SANDHILL SPRINGS</text>
  <text x="563" y="606" text-anchor="middle" fill="#F9E1BA" font-size="34" font-weight="700" letter-spacing="10" font-family="'Helvetica Neue', Arial, sans-serif">INVESTMENT</text>

  <text x="66" y="654" fill="#CAD6DD" font-size="17" font-family="'Helvetica Neue', Arial, sans-serif">Bleed: 3.75 x 2.25 in  |  Trim: 3.5 x 2.0 in  |  Safe area shown dashed</text>
</svg>
