<svg width="1200" height="1200" viewBox="0 0 1200 1200" fill="none" xmlns="http://www.w3.org/2000/svg">
  <defs>
    <linearGradient id="core" x1="320" y1="140" x2="840" y2="720" gradientUnits="userSpaceOnUse">
      <stop stop-color="#1F4F4B"/>
      <stop offset="1" stop-color="#122531"/>
    </linearGradient>
  </defs>
  <circle cx="600" cy="390" r="250" fill="url(#core)"/>
  <path d="M415 435C470 398 520 378 567 374C603 370 631 373 659 379C701 388 738 404 793 446" stroke="#F9E1BA" stroke-width="14" stroke-linecap="round"/>
  <path d="M402 510C462 461 524 437 583 432C641 427 687 441 730 457C769 471 807 490 836 513" stroke="#BF9863" stroke-width="11" stroke-linecap="round" opacity="0.92"/>
  <path d="M563 286C563 264 581 246 603 246C625 246 643 264 643 286C643 308 625 326 603 326H566" stroke="#E8EEF0" stroke-width="14" stroke-linecap="round" stroke-linejoin="round"/>
  <path d="M566 326H626" stroke="#E8EEF0" stroke-width="14" stroke-linecap="round"/>

  <text x="600" y="780" text-anchor="middle" fill="#122531" font-size="118" font-weight="700" letter-spacing="2" font-family="Georgia, 'Times New Roman', serif">SAND HILL SPRINGS</text>
  <text x="600" y="860" text-anchor="middle" fill="#1F4F4B" font-size="56" font-weight="700" letter-spacing="12" font-family="'Helvetica Neue', Arial, sans-serif">INVESTMENT</text>
  <line x1="250" y1="902" x2="950" y2="902" stroke="#BF9863" stroke-width="4"/>
  <text x="600" y="960" text-anchor="middle" fill="#40535F" font-size="34" font-weight="500" letter-spacing="1.2" font-family="'Helvetica Neue', Arial, sans-serif">INDEPENDENT INVESTMENT MANAGER</text>
</svg>
