<svg width="1200" height="760" viewBox="0 0 1200 760" fill="none" xmlns="http://www.w3.org/2000/svg">
  <defs>
    <linearGradient id="bg" x1="120" y1="20" x2="1000" y2="760" gradientUnits="userSpaceOnUse">
      <stop stop-color="#173A46"/>
      <stop offset="1" stop-color="#102532"/>
    </linearGradient>
    <linearGradient id="line" x1="220" y1="470" x2="960" y2="470" gradientUnits="userSpaceOnUse">
      <stop stop-color="#F9E1BA"/>
      <stop offset="1" stop-color="#BF9863"/>
    </linearGradient>
  </defs>
  <rect width="1200" height="760" rx="36" fill="url(#bg)"/>
  <rect x="74" y="84" width="1060" height="592" rx="28" fill="rgba(255,255,255,0.03)" stroke="rgba(249,225,186,0.2)"/>

  <rect x="140" y="150" width="316" height="440" rx="18" fill="rgba(16,37,50,0.65)" stroke="rgba(255,255,255,0.12)"/>
  <rect x="482" y="150" width="234" height="440" rx="18" fill="rgba(16,37,50,0.48)" stroke="rgba(255,255,255,0.12)"/>
  <rect x="744" y="150" width="316" height="440" rx="18" fill="rgba(16,37,50,0.65)" stroke="rgba(255,255,255,0.12)"/>

  <path d="M200 500C280 445 345 418 412 398C470 380 540 384 610 401C690 421 774 466 912 560" stroke="url(#line)" stroke-width="10" stroke-linecap="round"/>
  <path d="M193 540C293 472 390 445 493 436C584 428 674 448 753 477C833 507 907 548 992 612" stroke="#E5B56F" stroke-opacity="0.72" stroke-width="7" stroke-linecap="round"/>

  <circle cx="920" cy="230" r="95" fill="rgba(249,225,186,0.1)"/>
  <path d="M882 212H955" stroke="#F9E1BA" stroke-width="8" stroke-linecap="round"/>
  <path d="M882 245H1000" stroke="#F9E1BA" stroke-width="8" stroke-linecap="round"/>
  <path d="M882 278H970" stroke="#F9E1BA" stroke-width="8" stroke-linecap="round"/>
</svg>
