<svg width="860" height="220" viewBox="0 0 860 220" fill="none" xmlns="http://www.w3.org/2000/svg">
  <defs>
    <linearGradient id="a" x1="18" y1="15" x2="150" y2="160" gradientUnits="userSpaceOnUse">
      <stop stop-color="#1F4F4B"/>
      <stop offset="1" stop-color="#122531"/>
    </linearGradient>
  </defs>
  <circle cx="110" cy="110" r="92" fill="url(#a)"/>
  <path d="M42 128C60 113 76 105 92 103.5C104.2 102.1 113.8 103.3 122.5 105.3C136.6 108.4 148.6 114.5 176 136" stroke="#F9E1BA" stroke-width="5" stroke-linecap="round"/>
  <path d="M36 152C55.6 136.4 75.3 128.4 94.4 126.8C112.4 125.2 126.8 129.7 141.4 134.8C153.9 139.3 166.4 145.7 178.5 154" stroke="#BF9863" stroke-width="4.2" stroke-linecap="round" opacity="0.92"/>
  <path d="M93.5 72C93.5 63.7157 100.216 57 108.5 57C116.784 57 123.5 63.7157 123.5 72C123.5 80.2843 116.784 87 108.5 87H94.6" stroke="#E8EEF0" stroke-width="5" stroke-linecap="round" stroke-linejoin="round"/>
  <path d="M94.6 87H117.8" stroke="#E8EEF0" stroke-width="5" stroke-linecap="round"/>
  <text x="226" y="102" fill="#122531" font-size="52" font-weight="600" font-family="Fraunces, Georgia, serif" letter-spacing="0.6">SANDHILL SPRINGS</text>
  <text x="229" y="148" fill="#1F4F4B" font-size="29" font-weight="600" font-family="Manrope, Arial, sans-serif" letter-spacing="7">INVESTMENT</text>
</svg>
