<svg width="800" height="800" viewBox="0 0 800 800" fill="none" xmlns="http://www.w3.org/2000/svg">
  <defs>
    <linearGradient id="bg" x1="40" y1="20" x2="760" y2="760" gradientUnits="userSpaceOnUse">
      <stop stop-color="#1F4F4B"/>
      <stop offset="1" stop-color="#122531"/>
    </linearGradient>
  </defs>
  <rect width="800" height="800" rx="120" fill="url(#bg)"/>
  <circle cx="400" cy="330" r="170" fill="none" stroke="#F9E1BA" stroke-opacity="0.45" stroke-width="4"/>
  <path d="M270 362C305 338 337 327 367 324C391 321 411 323 427 327C455 334 481 346 529 379" stroke="#FFFFFF" stroke-width="11" stroke-linecap="round"/>
  <path d="M258 420C294 391 332 376 369 373C405 370 433 379 463 390C489 399 520 414 543 431" stroke="#FFFFFF" stroke-width="9" stroke-linecap="round" opacity="0.82"/>
  <path d="M366 257C366 239 380 225 398 225C416 225 430 239 430 257C430 275 416 289 398 289H372" stroke="#FFFFFF" stroke-width="10" stroke-linecap="round" stroke-linejoin="round"/>
  <path d="M372 289H421" stroke="#FFFFFF" stroke-width="10" stroke-linecap="round"/>
  <text x="400" y="578" text-anchor="middle" fill="#FFFFFF" font-size="68" font-weight="700" letter-spacing="2" font-family="Georgia, 'Times New Roman', serif">SANDHILL</text>
  <text x="400" y="644" text-anchor="middle" fill="#F9E1BA" font-size="54" font-weight="700" letter-spacing="4" font-family="'Helvetica Neue', Arial, sans-serif">SPRINGS</text>
</svg>
